# xmcd
#
# Track frame offsets:
#	150
#	13710
#	26220
#	45352
#	55497
#	63717
#	76207
#	85587
#	100010
#	110387
#	122472
#	136430
#
# Disc length: 2022 seconds
#
# Revision: 5
# Processed by: cddbd v1.5.2PL0 Copyright (c) Steve Scherf et al.
# Submitted via: audiograbber 1.83.01
#
DISCID=9407e40c
DTITLE=Die Vielharmoniker - Mal so, mal so
DYEAR=1992
DGENRE=Vocal
TTITLE0=Swing-Medley (Abends in der Taverne - Komm zurück - Ich werde jede Nach
TTITLE0=t von Ihnen träumen)
TTITLE1=Schnucki, ach Schnucki
TTITLE2=Tango-Medley (Hör mein Lied, Violetta - Regentropfen - In einer kleinen
TTITLE2=Konditorei)
TTITLE3=Mein kleiner grüner Kaktus
TTITLE4=Foxtrott-Medley (Sommersprossen - Wenn die Elisabeth)
TTITLE5=Gerda-Ballade
TTITLE6=Frau Vetterli
TTITLE7=Langsamer Walzer-Medley (Ich tanze mit dir in den Himmel hinein - Hörst
TTITLE7=du mein heimliches Rufen? - Sing mir das Lied noch einmal)
TTITLE8=Wiener-Medley (Der alte Sünder - Wenn ich mit meinem Dackel)
TTITLE9=Heut ist der schönste Tag in meinem Leben
TTITLE10=Foxtrott-Medley (Das kann doch einen Seeemann nicht erschüttern - Jawo
TTITLE10=hl, meine Herrn - Eine Seefahrt, die ist lustig)
TTITLE11=Noch einmal, noch einmal
EXTD=
EXTT0=
EXTT1=
EXTT2=
EXTT3=
EXTT4=
EXTT5=
EXTT6=
EXTT7=
EXTT8=
EXTT9=
EXTT10=
EXTT11=
PLAYORDER=
